<?xml version="1.0" encoding="UTF-8"?>
<!DOCTYPE svg PUBLIC "-//W3C//DTD SVG 1.1//EN" "http://www.w3.org/Graphics/SVG/1.1/DTD/svg11.dtd">
<!-- Creator: CorelDRAW 2020 (64-Bit) -->
<svg xmlns="http://www.w3.org/2000/svg" xml:space="preserve" width="362.247mm" height="130.742mm" version="1.1" style="shape-rendering:geometricPrecision; text-rendering:geometricPrecision; image-rendering:optimizeQuality; fill-rule:evenodd; clip-rule:evenodd"
viewBox="0 0 15842.24 5717.78"
 xmlns:xlink="http://www.w3.org/1999/xlink"
 xmlns:xodm="http://www.corel.com/coreldraw/odm/2003">
 <defs>
  <style type="text/css">
   <![CDATA[
    .fil0 {fill:#FEFEFE;fill-rule:nonzero;fill-opacity:0.501961}
   ]]>
  </style>
 </defs>
 <g id="Слой_x0020_1">
  <metadata id="CorelCorpID_0Corel-Layer"/>
  <g id="_1094665680">
   <path class="fil0" d="M-0 4835.69l0 -159.78 292.34 0 0 175.37c0,266.24 109.09,399.35 327.26,399.35 218.17,0 327.26,-133.12 327.26,-399.35 0,-83.08 -17.3,-161.05 -51.56,-233.75 -34.56,-72.76 -78.98,-137.02 -133.47,-192.87 -54.59,-55.81 -115.21,-110.71 -182.19,-164.64 -66.94,-53.88 -133.43,-109.74 -199.66,-167.52 -66.28,-57.78 -126.64,-118.85 -181.24,-183.11 -54.49,-64.31 -99.07,-141.56 -133.32,-231.83 -34.56,-90.27 -51.66,-188.62 -51.66,-295.13 0,-220.75 51.66,-392.22 154.87,-514.31 103.22,-122.04 257.34,-183.11 462.7,-183.11 206.43,0 361.61,61.68 465.49,185.08 103.98,123.35 155.94,294.17 155.94,512.34l0 75.95 -294.22 0 0 -91.53c0,-266.24 -106.46,-399.35 -319.52,-399.35 -213.06,0 -319.52,131.8 -319.52,395.46 0,84.44 17.31,163.33 51.71,236.69 34.4,73.37 79.13,138.03 134.38,193.83 55.2,55.86 116.17,110.75 183.11,164.64 66.94,53.88 133.78,109.74 200.71,167.52 66.84,57.78 127.91,118.8 183.16,183.11 55.05,64.26 99.98,141.57 134.38,231.83 34.4,90.27 51.66,188.67 51.66,295.13 0,216.9 -53.38,387.36 -159.83,511.37 -106.46,124.01 -263.66,186.05 -471.46,186.05 -207.85,0 -364.29,-61.68 -469.48,-185.08 -105.24,-123.35 -157.86,-294.17 -157.86,-512.34z"/>
   <polygon class="fil0" points="1527.4,5505.83 1527.4,2712.26 2676.79,2712.26 2676.79,2996.66 1839.07,2996.66 1839.07,3949.29 2520.96,3949.29 2520.96,4229.8 1839.07,4229.8 1839.07,5223.35 2676.79,5223.35 2676.79,5505.83 "/>
   <polygon class="fil0" points="2963.12,5505.83 2963.12,2712.26 3274.79,2712.26 3274.79,5223.35 4071.63,5223.35 4071.63,5505.83 "/>
   <polygon class="fil0" points="4307.41,5505.83 4307.41,2712.26 5415.77,2712.26 5415.77,2996.66 4619.03,2996.66 4619.03,4013.6 5259.93,4013.6 5259.93,4296.03 4619.03,4296.03 4619.03,5505.83 "/>
   <polygon class="fil0" points="10134.43,5505.83 10134.43,2712.26 10446.1,2712.26 10446.1,5223.35 11242.79,5223.35 11242.79,5505.83 "/>
   <path class="fil0" d="M11759.18 4847.37c0,129.88 27.62,229.56 83.03,299.03 55.2,69.47 138.38,104.23 248.98,104.23 221.56,0 332.17,-134.43 332.17,-403.25l0 -1476.65c0,-128.57 -27.32,-227.94 -82.07,-298.06 -54.64,-70.13 -138.07,-105.19 -250.1,-105.19 -110.6,0 -193.78,35.06 -248.98,105.19 -55.41,70.13 -83.03,169.5 -83.03,298.06l0 1476.65zm-303.93 -15.58l0 -1443.56c0,-219.44 53.84,-391.57 161.35,-516.23 107.72,-124.67 265.83,-187.01 474.59,-187.01 210.73,0 370.72,62.34 479.96,187.01 109.24,124.67 163.98,296.8 163.98,516.23l0 1443.56c0,216.9 -54.75,387.97 -163.98,513.3 -109.24,125.38 -269.22,188.02 -479.96,188.02 -207.34,0 -365.36,-62.64 -473.48,-188.02 -108.33,-125.33 -162.46,-296.39 -162.46,-513.3z"/>
   <polygon class="fil0" points="12945.45,2712.26 13257.23,2712.26 13712.09,5148.92 14165.03,2712.26 14457.22,2712.26 13935.93,5505.83 13471.05,5505.83 "/>
   <polygon class="fil0" points="14693,5505.83 14693,2712.26 15842.24,2712.26 15842.24,2996.66 15004.62,2996.66 15004.62,3949.29 15686.4,3949.29 15686.4,4229.8 15004.62,4229.8 15004.62,5223.35 15842.24,5223.35 15842.24,5505.83 "/>
   <path class="fil0" d="M9124.14 3589.53c24.46,78.68 38.83,158.91 43.02,240.39 3.78,99.29 -9.07,200.62 -38.66,303.38 -23.94,83.11 -64.94,155.9 -117.81,220.39 -53.56,65.34 -119.8,122.55 -193.21,173.59l0.06 0.08c-64.87,45.01 -131.11,87.61 -197.96,128.93 -63.28,39.12 -133.85,81.02 -204.32,122.87 -129.18,76.74 -251.41,161.52 -365.59,255.79 -114.07,94.19 -219.86,197.8 -316.21,312.31l-0.18 0c-27.68,32.97 -52.21,61.64 -74.67,87.86 -78.39,-124.97 -175.57,-236.78 -286.14,-338.32 -126.07,-115.77 -269.66,-218.42 -422.68,-312.17l-10.18 -6.24c-144.18,-88.4 -289.23,-177.35 -421.88,-278.69 -133.22,-101.72 -222.47,-219.14 -271.33,-350.23 -50.58,-135.73 -58.43,-287.48 -27.44,-452.86 17.34,-92.6 43.56,-180.65 82.92,-262.01 38.92,-80.46 90.87,-154.64 160.09,-220.52 116.1,-110.4 260,-172.5 408.43,-184.76 148.97,-12.31 302.62,25.58 437.45,115.2 77.35,51.36 141.65,112.24 196.19,181.36 55.09,69.81 100.63,148.46 139.86,234.52l36.37 79.78 45.17 -75.26c11.93,-19.88 21.28,-35.99 30.35,-51.64 19.61,-33.81 38.11,-65.71 57.32,-93.97l0.08 0.06c58.62,-85.71 126.51,-159.71 205.84,-217.89 78.84,-57.83 169.23,-100.3 273.39,-123.42 149.93,-33.3 295.37,-21.43 422.4,30.66 125.92,51.64 234.2,143.07 311.21,269.45 42.05,68.99 74.77,139.53 98.13,211.36zm140.28 -688.75c0,-0.15 0,-0.15 -0.15,-0.15 -49.64,-115.71 -113.39,-249.95 -193.48,-418.28 -143.59,-303.18 -269.83,-507.73 -237.1,-788.34 12.19,-104.78 42.6,-187.16 65.57,-239.02 -158.47,176.03 -235.12,330.65 -269.22,459.16 -7.39,13.56 -15.59,27.32 -25.15,40.73 -17.31,23.88 -39.06,48.27 -65.27,71.74 -64.81,57.07 -155.68,104.58 -265.22,107.97 -10.17,0.3 -246.86,4.5 -344.81,-165.2 -37.34,-64.36 -42.91,-134.08 -33.45,-199.65 5.82,-15.74 11.54,-30.26 16.8,-43.06 72.66,-177.24 173.7,-220.29 269.68,-342.54 231.42,-294.52 158.77,-699.04 152.9,-728.48 -11.28,-58.34 -70.18,-330.8 -312.43,-531.97 -73.92,-61.43 -145.31,-100.13 -197.48,-123.71 56.77,64 184.37,227.23 196.72,458.96 13.41,252.12 -118.04,438.31 -189.48,539.05 -142.53,201.98 -232.79,191.76 -373.04,334.64 -69.57,-194.7 -168.79,-327.86 -176.33,-324.93 -5.26,2.02 45.84,124.36 68.2,301.35 5.21,41.03 11.08,88.24 14.32,134.38 -25.45,34.4 -61.52,97.65 -116.02,200.71 -67.85,-27.63 -150.88,-106.61 -194.69,-194.39 -65.88,-131.8 -44.28,-284.96 -29.14,-393.44 14.93,-106 39.01,-161.05 29.14,-165.25 -19.73,-8.2 -148.85,201.17 -223.54,447.12 -64.96,214.73 -70.53,399.76 -67.9,504.95 8.71,336.97 195.61,380.3 39.52,757.53 -2.17,5.26 -4.5,10.47 -6.78,15.74l-22.72 48.37c-95.32,189.44 -236.33,305.91 -331.71,266.34 -105.65,-43.62 -115.41,-262.7 -21.6,-489.06 36.73,-88.54 83.79,-165.25 133.93,-223.08 -143.95,143.65 -437.51,474.59 -567.89,921.06 -26.36,90.72 -81.61,288.65 -70.83,535.51l0 0.45c0,0.15 0,0.15 0,0.35l0 0.45c-0.91,18.77 -1.36,37.95 -1.36,57.07 0,401.43 212.91,753.03 532.07,948.38 0.21,0 0.21,0.15 0.35,0.15l0.15 0c121.13,87.33 248.07,167.38 374.31,247.32 332.72,210.73 624.21,460.83 802.81,788.03 36.74,-44.57 83.33,-100.28 129.17,-156.44 208.56,-256.57 458.96,-464.52 741.03,-637.46 113.69,-69.62 227.53,-139.5 338.19,-213.72 189.58,-99.62 349.88,-254.24 462.65,-444.28 112.63,-190.09 178.05,-415.96 178.05,-658.01 0,-263.35 -77.31,-507.28 -208.76,-707.08z"/>
  </g>
 </g>
</svg>
