<?xml version="1.0" encoding="UTF-8"?>
<!DOCTYPE svg PUBLIC "-//W3C//DTD SVG 1.1//EN" "http://www.w3.org/Graphics/SVG/1.1/DTD/svg11.dtd">
<!-- Creator: CorelDRAW 2020 (64-Bit) -->
<svg xmlns="http://www.w3.org/2000/svg" xml:space="preserve" width="362.247mm" height="158.314mm" version="1.1" style="shape-rendering:geometricPrecision; text-rendering:geometricPrecision; image-rendering:optimizeQuality; fill-rule:evenodd; clip-rule:evenodd"
viewBox="0 0 15842.24 6923.59"
 xmlns:xlink="http://www.w3.org/1999/xlink"
 xmlns:xodm="http://www.corel.com/coreldraw/odm/2003">
 <defs>
  <style type="text/css">
   <![CDATA[
    .fil0 {fill:#FEFEFE;fill-rule:nonzero;fill-opacity:0.501961}
   ]]>
  </style>
 </defs>
 <g id="Слой_x0020_1">
  <metadata id="CorelCorpID_0Corel-Layer"/>
  <g id="_4425866864">
   <path class="fil0" d="M4386.39 6478.29c0,62.44 15.58,117.18 46.44,164.29 31.02,47.11 75.14,70.68 132.66,70.68 25.75,0 49.53,-4.4 71.14,-13.15 21.6,-8.76 39.46,-17.51 53.84,-26.31 14.17,-8.76 24.84,-13.15 31.93,-13.15 8.8,0 15.74,3.04 21,9.06 5.21,6.02 7.84,14.27 7.84,24.64 0,19.18 -18.67,37.54 -55.86,55.05 -37.29,17.51 -80.5,26.31 -129.88,26.31 -54.14,0 -101.19,-14.42 -140.86,-43.16 -39.67,-28.74 -68.81,-65.27 -87.48,-109.64 -18.67,-44.37 -27.93,-92.59 -27.93,-144.6 0,-38.91 5.56,-75.84 16.8,-110.91 11.28,-35.06 27.32,-66.58 48.17,-94.46 20.69,-27.98 48.12,-50.29 82.07,-66.99 33.95,-16.7 71.74,-25.05 113.39,-25.05 47.05,0 87.02,9.87 119.86,29.55 32.89,19.73 49.38,38.35 49.38,55.91 0,9.87 -2.73,18.06 -8.15,24.64 -5.56,6.53 -12.65,9.81 -21.45,9.81 -8.2,0 -17.76,-4.75 -28.69,-14.37 -10.98,-9.56 -25.6,-19.18 -43.97,-28.74 -18.36,-9.56 -40.73,-14.37 -66.99,-14.37 -31.17,0 -58.95,6.88 -82.98,20.54 -24.08,13.71 -43.21,32.03 -57.53,55.05 -14.22,22.97 -24.84,48.07 -31.98,75.13 -7.23,27.12 -10.78,55.2 -10.78,84.24z"/>
   <path class="fil0" d="M4917.09 6737.09l0 -483.9 -109.19 0c-23.62,0 -35.37,-11.24 -35.37,-33.7 0,-22.46 11.74,-33.7 35.37,-33.7l290.78 0c23.63,0 35.37,11.24 35.37,33.7 0,22.47 -11.74,33.7 -35.37,33.7l-109.18 0 0 483.9c0,12.04 -3.24,21.5 -9.92,28.33 -6.63,6.83 -15.28,10.27 -26.21,10.27 -10.93,0 -19.73,-3.44 -26.41,-10.27 -6.48,-6.83 -9.87,-16.29 -9.87,-28.33z"/>
   <path class="fil0" d="M5537.46 6214.58c0,5.47 -1.22,10.37 -3.39,14.77l-230.01 525.8c-6.02,13.66 -16.04,20.54 -30.41,20.54 -9.26,0 -17.46,-3.29 -24.54,-9.87 -7.23,-6.58 -10.78,-14.52 -10.78,-23.83 0,-5.46 1.06,-10.37 3.39,-14.77l62.34 -142.12 -155.23 -355.74c-2.13,-4.4 -3.24,-9.31 -3.24,-14.77 0,-9.31 3.54,-17.25 10.98,-23.83 7.39,-6.58 15.74,-9.87 25.15,-9.87 13.71,0 23.43,6.88 29.6,20.54l129.78 298.22 130.64 -298.22c6.02,-13.66 15.89,-20.54 29.5,-20.54 9.41,0 17.71,3.29 25.15,9.87 7.39,6.58 11.08,14.52 11.08,23.83z"/>
   <path class="fil0" d="M5960.49 6708.3l0 -460.07 -183.26 0 0 38.66c0,91.98 -5.11,171.82 -15.59,239.47 -10.32,67.65 -29.29,128.26 -56.62,181.94l255.46 0zm148.75 171.72c0,29 -12.04,43.56 -36.28,43.56 -24.03,0 -36.08,-14.57 -36.08,-43.56l0 -109.29 -409.93 0 0 109.29c0,29 -12.04,43.56 -36.08,43.56 -24.24,0 -36.28,-14.57 -36.28,-43.56l0 -138.03c0,-10.93 3.39,-19.33 9.87,-25.04 6.63,-5.77 15.13,-8.65 25.45,-8.65l33.8 0c31.17,-55.86 51.96,-116.37 62.34,-181.54 10.47,-65.17 15.74,-145.16 15.74,-239.88l0 -57.53c0,-29.04 12.04,-43.56 36.08,-43.56l258.75 0c24.08,0 36.23,14.52 36.23,43.56l0 478.95 41.08 0c10.32,0 18.82,2.89 25.45,8.65 6.48,5.72 9.87,14.11 9.87,25.04l0 138.03z"/>
   <path class="fil0" d="M6621.94 6737.09c0,12.04 -3.44,21.5 -9.92,28.33 -6.63,6.83 -15.38,10.27 -26.36,10.27 -10.98,0 -19.74,-3.44 -26.21,-10.27 -6.63,-6.83 -9.87,-16.29 -9.87,-28.33l0 -423.95 -1.72 0 -294.82 424.76c-10.47,14.77 -18.97,24.79 -25.45,30.01 -6.63,5.16 -15.13,7.79 -25.6,7.79 -10.37,0 -18.37,-3.84 -24.24,-11.53 -5.72,-7.64 -8.65,-18.07 -8.65,-31.22l0 -513.45c0,-12.04 3.39,-21.5 9.87,-28.33 6.63,-6.83 15.43,-10.27 26.36,-10.27 10.98,0 19.78,3.44 26.26,10.27 6.63,6.83 9.87,16.29 9.87,28.33l0 423.9 1.72 0 294.82 -424.71c10.47,-14.77 18.98,-24.79 25.45,-30 6.63,-5.16 15.13,-7.79 25.6,-7.79 9.71,0 17.76,3.84 23.78,11.48 6.02,7.69 9.11,18.07 9.11,31.22l0 513.5z"/>
   <path class="fil0" d="M6976.77 6456.08l0 -207.85 -96.89 0c-32.89,0 -59.55,9.77 -79.74,29.19 -20.24,19.43 -30.41,43.11 -30.41,71.09 0,37.75 8.6,65.17 25.9,82.12 17.31,16.95 44.73,25.45 82.57,25.45l98.56 0zm72.35 281.01c0,12.04 -3.39,21.5 -9.87,28.33 -6.63,6.83 -15.43,10.27 -26.36,10.27 -10.98,0 -19.78,-3.44 -26.26,-10.27 -6.63,-6.83 -9.87,-16.29 -9.87,-28.33l0 -222.67 -223.38 244.83c-9.92,10.98 -20.85,16.44 -33.04,16.44 -9.26,0 -17.1,-2.73 -23.27,-8.24 -6.38,-5.47 -9.56,-12.04 -9.56,-19.68 0,-12.04 4.76,-23.02 14.02,-32.89l186.55 -204.56 -31.32 -0.81c-47.51,-1.12 -86.12,-15.08 -115.41,-41.9 -29.29,-26.87 -43.97,-68.2 -43.97,-124.06 0,-46.04 17.91,-83.78 53.53,-113.38 35.47,-29.55 77.46,-44.38 125.58,-44.38l133.93 0c25.75,0 38.7,13.15 38.7,39.46l0 511.83z"/>
   <path class="fil0" d="M7421.25 6248.23l0 241.54 106.76 0c35.01,0 63.7,-11.48 86.27,-34.51 22.51,-23.02 33.6,-51.46 33.6,-85.45 0,-32.84 -10.02,-61.32 -30.36,-85.41 -20.24,-24.08 -51.25,-36.18 -92.74,-36.18l-103.52 0zm0 303.98l0 184.88c0,12.04 -3.39,21.5 -9.87,28.33 -6.63,6.83 -15.43,10.27 -26.41,10.27 -10.93,0 -19.58,-3.44 -26.21,-10.27 -6.63,-6.83 -9.87,-16.29 -9.87,-28.33l0 -511.83c0,-26.31 12.95,-39.46 38.56,-39.46l143.03 0c57.53,0 103.52,17.56 138.08,52.57 34.4,35.06 51.66,78.88 51.66,131.45 0,50.95 -17.86,94.11 -53.84,129.42 -35.77,35.31 -80.39,52.97 -133.42,52.97l-111.72 0z"/>
   <path class="fil0" d="M8092.36 6580.95l-112.48 -316.27 -1.67 0 -112.48 316.27 226.62 0zm-248.83 62.44l-37.79 105.19c-6.63,18.07 -18.37,27.12 -35.37,27.12 -9.87,0 -18.06,-2.73 -24.64,-8.24 -6.53,-5.47 -9.92,-12.85 -9.92,-22.16 0,-4.4 3.39,-16.44 9.92,-36.12l181.54 -483.9c11.44,-29.6 28.69,-44.37 51.71,-44.37 23.12,0 40.27,14.77 51.81,44.37l181.59 483.9c6.53,19.68 9.92,31.72 9.92,36.12 0,9.31 -3.39,16.7 -9.92,22.16 -6.58,5.51 -14.77,8.24 -24.64,8.24 -17,0 -28.74,-9.05 -35.37,-27.12l-37.79 -105.19 -271.05 0z"/>
   <path class="fil0" d="M8333.05 6478.29c0,62.44 15.58,117.18 46.45,164.29 31.02,47.11 75.29,70.68 132.66,70.68 25.75,0 49.54,-4.4 71.14,-13.15 21.6,-8.76 39.46,-17.51 53.83,-26.31 14.22,-8.76 24.84,-13.15 31.93,-13.15 8.8,0 15.74,3.04 21,9.06 5.26,6.02 7.89,14.27 7.89,24.64 0,19.18 -18.72,37.54 -55.86,55.05 -37.34,17.51 -80.55,26.31 -129.93,26.31 -54.14,0 -101.19,-14.42 -140.86,-43.16 -39.67,-28.74 -68.81,-65.27 -87.48,-109.64 -18.67,-44.37 -27.88,-92.59 -27.88,-144.6 0,-38.91 5.52,-75.84 16.8,-110.91 11.24,-35.06 27.27,-66.58 48.12,-94.46 20.69,-27.98 48.12,-50.29 82.07,-66.99 33.95,-16.7 71.74,-25.05 113.39,-25.05 47.11,0 87.02,9.87 119.91,29.55 32.84,19.73 49.38,38.35 49.38,55.91 0,9.87 -2.79,18.06 -8.2,24.64 -5.57,6.53 -12.65,9.81 -21.46,9.81 -8.14,0 -17.76,-4.75 -28.69,-14.37 -10.93,-9.56 -25.6,-19.18 -43.97,-28.74 -18.37,-9.56 -40.73,-14.37 -66.99,-14.37 -31.17,0 -58.9,6.88 -82.98,20.54 -24.08,13.71 -43.21,32.03 -57.53,55.05 -14.22,22.97 -24.84,48.07 -31.98,75.13 -7.08,27.12 -10.78,55.2 -10.78,84.24z"/>
   <path class="fil0" d="M8863.8 6737.09l0 -483.9 -109.24 0c-23.63,0 -35.37,-11.24 -35.37,-33.7 0,-22.46 11.74,-33.7 35.37,-33.7l290.77 0c23.63,0 35.37,11.24 35.37,33.7 0,22.47 -11.74,33.7 -35.37,33.7l-109.18 0 0 483.9c0,12.04 -3.24,21.5 -9.92,28.33 -6.63,6.83 -15.28,10.27 -26.21,10.27 -10.93,0 -19.73,-3.44 -26.36,-10.27 -6.53,-6.83 -9.87,-16.29 -9.87,-28.33z"/>
   <path class="fil0" d="M9389.55 6456.08l0 -207.85 -96.84 0c-32.89,0 -59.45,9.77 -79.79,29.19 -20.24,19.43 -30.41,43.11 -30.41,71.09 0,37.75 8.65,65.17 25.9,82.12 17.31,16.95 44.78,25.45 82.57,25.45l98.56 0zm72.4 281.01c0,12.04 -3.29,21.5 -9.92,28.33 -6.63,6.83 -15.23,10.27 -26.21,10.27 -11.13,0 -19.73,-3.44 -26.41,-10.27 -6.42,-6.83 -9.87,-16.29 -9.87,-28.33l0 -222.67 -223.38 244.83c-9.87,10.98 -20.85,16.44 -32.84,16.44 -9.41,0 -17.15,-2.73 -23.48,-8.24 -6.32,-5.47 -9.41,-12.04 -9.41,-19.68 0,-12.04 4.61,-23.02 13.92,-32.89l186.5 -204.56 -31.17 -0.81c-47.66,-1.12 -86.06,-15.08 -115.41,-41.9 -29.3,-26.87 -43.97,-68.2 -43.97,-124.06 0,-46.04 17.76,-83.78 53.38,-113.38 35.67,-29.55 77.46,-44.38 125.78,-44.38l133.88 0c25.6,0 38.61,13.15 38.61,39.46l0 511.83z"/>
   <path class="fil0" d="M10274.38 6743.67c0,8.76 -3.39,16.29 -10.17,22.57 -6.98,6.28 -15.28,9.46 -25.15,9.46 -12.49,0 -24.39,-5.21 -35.37,-15.63l-272.76 -267.81 0 244.84c0,12.04 -3.24,21.5 -9.71,28.33 -6.63,6.83 -15.43,10.27 -26.36,10.27 -10.98,0 -19.73,-3.44 -26.26,-10.27 -6.63,-6.83 -9.87,-16.29 -9.87,-28.33l0 -244.84 -272.76 267.81c-10.47,10.42 -22.21,15.63 -35.31,15.63 -9.87,0 -18.21,-3.18 -25,-9.46 -6.93,-6.28 -10.32,-13.81 -10.32,-22.57 0,-10.42 4.91,-20.29 14.78,-29.6l261.98 -253.03 -239.78 -216.09c-9.87,-8.76 -14.77,-19.68 -14.77,-32.84 0,-9.31 2.73,-16.85 8.6,-22.61 5.72,-5.72 13.26,-8.6 22.57,-8.6 9.87,0 22.97,7.69 39.46,23.02l250.55 229.2 0 -213.62c0,-12.04 3.24,-21.5 9.87,-28.33 6.53,-6.83 15.28,-10.27 26.26,-10.27 10.93,0 19.73,3.44 26.36,10.27 6.48,6.83 9.71,16.29 9.71,28.33l0 213.62 250.71 -229.2c16.4,-15.33 29.5,-23.02 39.36,-23.02 9.26,0 16.8,2.89 22.67,8.6 5.72,5.77 8.65,13.31 8.65,22.61 0,13.15 -4.95,24.08 -14.82,32.84l-239.88 216.09 261.94 253.03c9.87,9.31 14.83,19.18 14.83,29.6z"/>
   <path class="fil0" d="M10402.59 6492.25l0 244.84c0,12.04 -3.24,21.5 -9.87,28.33 -6.68,6.83 -15.28,10.27 -26.26,10.27 -10.93,0 -19.73,-3.44 -26.36,-10.27 -6.48,-6.83 -9.87,-16.29 -9.87,-28.33l0 -517.6c0,-12.04 3.39,-21.5 9.87,-28.33 6.63,-6.83 15.43,-10.27 26.36,-10.27 10.98,0 19.58,3.44 26.26,10.27 6.63,6.83 9.87,16.29 9.87,28.33l0 213.62 250.55 -229.2c16.34,-15.33 29.6,-23.02 39.46,-23.02 9.31,0 16.85,2.89 22.57,8.6 5.72,5.77 8.6,13.31 8.6,22.61 0,13.15 -4.91,24.08 -14.77,32.84l-239.93 216.09 262.14 253.03c9.87,9.31 14.77,19.18 14.77,29.6 0,8.76 -3.39,16.29 -10.32,22.57 -6.78,6.28 -15.13,9.46 -25,9.46 -12.65,0 -24.39,-5.21 -35.31,-15.63l-272.76 -267.81z"/>
   <path class="fil0" d="M11254.53 6737.09c0,12.04 -3.24,21.5 -9.87,28.33 -6.63,6.83 -15.28,10.27 -26.26,10.27 -11.08,0 -19.73,-3.44 -26.36,-10.27 -6.48,-6.83 -9.87,-16.29 -9.87,-28.33l0 -423.95 -1.57 0 -294.98 424.76c-10.47,14.77 -18.97,24.79 -25.45,30.01 -6.63,5.16 -15.13,7.79 -25.45,7.79 -10.47,0 -18.52,-3.84 -24.23,-11.53 -5.87,-7.64 -8.65,-18.07 -8.65,-31.22l0 -513.45c0,-12.04 3.24,-21.5 9.92,-28.33 6.42,-6.83 15.23,-10.27 26.21,-10.27 10.93,0 19.73,3.44 26.36,10.27 6.48,6.83 9.72,16.29 9.72,28.33l0 423.9 1.72 0 294.98 -424.71c10.32,-14.77 18.82,-24.79 25.45,-30 6.48,-5.16 14.98,-7.79 25.45,-7.79 9.91,0 17.76,3.84 23.78,11.48 6.02,7.69 9.11,18.07 9.11,31.22l0 513.5z"/>
   <path class="fil0" d="M-0 4835.69l0 -159.78 292.34 0 0 175.37c0,266.24 109.09,399.35 327.26,399.35 218.17,0 327.26,-133.12 327.26,-399.35 0,-83.08 -17.3,-161.05 -51.56,-233.75 -34.56,-72.76 -78.98,-137.02 -133.47,-192.87 -54.59,-55.81 -115.21,-110.71 -182.19,-164.64 -66.94,-53.88 -133.43,-109.74 -199.66,-167.52 -66.28,-57.78 -126.64,-118.85 -181.24,-183.11 -54.49,-64.31 -99.07,-141.56 -133.32,-231.83 -34.56,-90.27 -51.66,-188.62 -51.66,-295.13 0,-220.75 51.66,-392.22 154.87,-514.31 103.22,-122.04 257.34,-183.11 462.7,-183.11 206.43,0 361.61,61.68 465.49,185.08 103.98,123.35 155.94,294.17 155.94,512.34l0 75.95 -294.22 0 0 -91.53c0,-266.24 -106.46,-399.35 -319.52,-399.35 -213.06,0 -319.52,131.8 -319.52,395.46 0,84.44 17.31,163.33 51.71,236.69 34.4,73.37 79.13,138.03 134.38,193.83 55.2,55.86 116.17,110.75 183.11,164.64 66.94,53.88 133.78,109.74 200.71,167.52 66.84,57.78 127.91,118.8 183.16,183.11 55.05,64.26 99.98,141.57 134.38,231.83 34.4,90.27 51.66,188.67 51.66,295.13 0,216.9 -53.38,387.36 -159.83,511.37 -106.46,124.01 -263.66,186.05 -471.46,186.05 -207.85,0 -364.29,-61.68 -469.48,-185.08 -105.24,-123.35 -157.86,-294.17 -157.86,-512.34z"/>
   <polygon class="fil0" points="1527.4,5505.83 1527.4,2712.26 2676.79,2712.26 2676.79,2996.66 1839.07,2996.66 1839.07,3949.29 2520.96,3949.29 2520.96,4229.8 1839.07,4229.8 1839.07,5223.35 2676.79,5223.35 2676.79,5505.83 "/>
   <polygon class="fil0" points="2963.12,5505.83 2963.12,2712.26 3274.79,2712.26 3274.79,5223.35 4071.63,5223.35 4071.63,5505.83 "/>
   <polygon class="fil0" points="4307.41,5505.83 4307.41,2712.26 5415.77,2712.26 5415.77,2996.66 4619.03,2996.66 4619.03,4013.6 5259.93,4013.6 5259.93,4296.03 4619.03,4296.03 4619.03,5505.83 "/>
   <polygon class="fil0" points="10134.43,5505.83 10134.43,2712.26 10446.1,2712.26 10446.1,5223.35 11242.79,5223.35 11242.79,5505.83 "/>
   <path class="fil0" d="M11759.18 4847.37c0,129.88 27.62,229.56 83.03,299.03 55.2,69.47 138.38,104.23 248.98,104.23 221.56,0 332.17,-134.43 332.17,-403.25l0 -1476.65c0,-128.57 -27.32,-227.94 -82.07,-298.06 -54.64,-70.13 -138.07,-105.19 -250.1,-105.19 -110.6,0 -193.78,35.06 -248.98,105.19 -55.41,70.13 -83.03,169.5 -83.03,298.06l0 1476.65zm-303.93 -15.58l0 -1443.56c0,-219.44 53.84,-391.57 161.35,-516.23 107.72,-124.67 265.83,-187.01 474.59,-187.01 210.73,0 370.72,62.34 479.96,187.01 109.24,124.67 163.98,296.8 163.98,516.23l0 1443.56c0,216.9 -54.75,387.97 -163.98,513.3 -109.24,125.38 -269.22,188.02 -479.96,188.02 -207.34,0 -365.36,-62.64 -473.48,-188.02 -108.33,-125.33 -162.46,-296.39 -162.46,-513.3z"/>
   <polygon class="fil0" points="12945.45,2712.26 13257.23,2712.26 13712.09,5148.92 14165.03,2712.26 14457.22,2712.26 13935.93,5505.83 13471.05,5505.83 "/>
   <polygon class="fil0" points="14693,5505.83 14693,2712.26 15842.24,2712.26 15842.24,2996.66 15004.62,2996.66 15004.62,3949.29 15686.4,3949.29 15686.4,4229.8 15004.62,4229.8 15004.62,5223.35 15842.24,5223.35 15842.24,5505.83 "/>
   <path class="fil0" d="M9124.14 3589.53c24.46,78.68 38.83,158.91 43.02,240.39 3.78,99.29 -9.07,200.62 -38.66,303.38 -23.94,83.11 -64.94,155.9 -117.81,220.39 -53.56,65.34 -119.8,122.55 -193.21,173.59l0.06 0.08c-64.87,45.01 -131.11,87.61 -197.96,128.93 -63.28,39.12 -133.85,81.02 -204.32,122.87 -129.18,76.74 -251.41,161.52 -365.59,255.79 -114.07,94.19 -219.86,197.8 -316.21,312.31l-0.18 0c-27.68,32.97 -52.21,61.64 -74.67,87.86 -78.39,-124.97 -175.57,-236.78 -286.14,-338.32 -126.07,-115.77 -269.66,-218.42 -422.68,-312.17l-10.18 -6.24c-144.18,-88.4 -289.23,-177.35 -421.88,-278.69 -133.22,-101.72 -222.47,-219.14 -271.33,-350.23 -50.58,-135.73 -58.43,-287.48 -27.44,-452.86 17.34,-92.6 43.56,-180.65 82.92,-262.01 38.92,-80.46 90.87,-154.64 160.09,-220.52 116.1,-110.4 260,-172.5 408.43,-184.76 148.97,-12.31 302.62,25.58 437.45,115.2 77.35,51.36 141.65,112.24 196.19,181.36 55.09,69.81 100.63,148.46 139.86,234.52l36.37 79.78 45.17 -75.26c11.93,-19.88 21.28,-35.99 30.35,-51.64 19.61,-33.81 38.11,-65.71 57.32,-93.97l0.08 0.06c58.62,-85.71 126.51,-159.71 205.84,-217.89 78.84,-57.83 169.23,-100.3 273.39,-123.42 149.93,-33.3 295.37,-21.43 422.4,30.66 125.92,51.64 234.2,143.07 311.21,269.45 42.05,68.99 74.77,139.53 98.13,211.36zm140.28 -688.75c0,-0.15 0,-0.15 -0.15,-0.15 -49.64,-115.71 -113.39,-249.95 -193.48,-418.28 -143.59,-303.18 -269.83,-507.73 -237.1,-788.34 12.19,-104.78 42.6,-187.16 65.57,-239.02 -158.47,176.03 -235.12,330.65 -269.22,459.16 -7.39,13.56 -15.59,27.32 -25.15,40.73 -17.31,23.88 -39.06,48.27 -65.27,71.74 -64.81,57.07 -155.68,104.58 -265.22,107.97 -10.17,0.3 -246.86,4.5 -344.81,-165.2 -37.34,-64.36 -42.91,-134.08 -33.45,-199.65 5.82,-15.74 11.54,-30.26 16.8,-43.06 72.66,-177.24 173.7,-220.29 269.68,-342.54 231.42,-294.52 158.77,-699.04 152.9,-728.48 -11.28,-58.34 -70.18,-330.8 -312.43,-531.97 -73.92,-61.43 -145.31,-100.13 -197.48,-123.71 56.77,64 184.37,227.23 196.72,458.96 13.41,252.12 -118.04,438.31 -189.48,539.05 -142.53,201.98 -232.79,191.76 -373.04,334.64 -69.57,-194.7 -168.79,-327.86 -176.33,-324.93 -5.26,2.02 45.84,124.36 68.2,301.35 5.21,41.03 11.08,88.24 14.32,134.38 -25.45,34.4 -61.52,97.65 -116.02,200.71 -67.85,-27.63 -150.88,-106.61 -194.69,-194.39 -65.88,-131.8 -44.28,-284.96 -29.14,-393.44 14.93,-106 39.01,-161.05 29.14,-165.25 -19.73,-8.2 -148.85,201.17 -223.54,447.12 -64.96,214.73 -70.53,399.76 -67.9,504.95 8.71,336.97 195.61,380.3 39.52,757.53 -2.17,5.26 -4.5,10.47 -6.78,15.74l-22.72 48.37c-95.32,189.44 -236.33,305.91 -331.71,266.34 -105.65,-43.62 -115.41,-262.7 -21.6,-489.06 36.73,-88.54 83.79,-165.25 133.93,-223.08 -143.95,143.65 -437.51,474.59 -567.89,921.06 -26.36,90.72 -81.61,288.65 -70.83,535.51l0 0.45c0,0.15 0,0.15 0,0.35l0 0.45c-0.91,18.77 -1.36,37.95 -1.36,57.07 0,401.43 212.91,753.03 532.07,948.38 0.21,0 0.21,0.15 0.35,0.15l0.15 0c121.13,87.33 248.07,167.38 374.31,247.32 332.72,210.73 624.21,460.83 802.81,788.03 36.74,-44.57 83.33,-100.28 129.17,-156.44 208.56,-256.57 458.96,-464.52 741.03,-637.46 113.69,-69.62 227.53,-139.5 338.19,-213.72 189.58,-99.62 349.88,-254.24 462.65,-444.28 112.63,-190.09 178.05,-415.96 178.05,-658.01 0,-263.35 -77.31,-507.28 -208.76,-707.08z"/>
  </g>
 </g>
</svg>
